<svg width="119" height="28" viewBox="0 0 119 28" fill="none" xmlns="http://www.w3.org/2000/svg">
<path d="M12.1787 8.85882C11.8878 8.37968 11.4857 8.01176 10.9723 7.75508C10.4761 7.4984 9.88569 7.37005 9.2012 7.37005C7.93489 7.37005 6.93382 7.78075 6.19799 8.60214C5.47928 9.42353 5.11992 10.5273 5.11992 11.9134C5.11992 13.4706 5.50494 14.6599 6.275 15.4813C7.06216 16.2856 8.20013 16.6877 9.6889 16.6877C11.4515 16.6877 12.7092 15.892 13.4622 14.3005H8.40548V10.6813H17.8001V15.5583C17.4065 16.5166 16.8247 17.415 16.0547 18.2535C15.3017 19.092 14.3434 19.785 13.1798 20.3326C12.0162 20.8631 10.69 21.1283 9.2012 21.1283C7.3873 21.1283 5.77874 20.7433 4.37553 19.9733C2.98944 19.1861 1.91136 18.0995 1.14131 16.7134C0.388367 15.3102 0.0118964 13.7102 0.0118964 11.9134C0.0118964 10.1337 0.388367 8.5508 1.14131 7.1647C1.91136 5.7615 2.98944 4.67487 4.37553 3.90481C5.76163 3.11765 7.36163 2.72406 9.17553 2.72406C11.4515 2.72406 13.3338 3.27166 14.8226 4.36684C16.3114 5.46203 17.2354 6.95936 17.5948 8.85882H12.1787ZM26.7542 21.1797C25.3168 21.1797 24.0248 20.8802 22.8783 20.2813C21.7489 19.6824 20.859 18.8267 20.2088 17.7144C19.5585 16.6021 19.2334 15.293 19.2334 13.7872C19.2334 12.2984 19.5585 10.9979 20.2088 9.88556C20.8761 8.77326 21.7745 7.91765 22.9039 7.31872C24.0505 6.71979 25.3424 6.42032 26.7799 6.42032C28.2173 6.42032 29.5007 6.71979 30.6301 7.31872C31.7767 7.91765 32.6751 8.77326 33.3253 9.88556C33.9927 10.9979 34.3264 12.2984 34.3264 13.7872C34.3264 15.2759 33.9927 16.585 33.3253 17.7144C32.6751 18.8267 31.7767 19.6824 30.6301 20.2813C29.4836 20.8802 28.1916 21.1797 26.7542 21.1797ZM26.7542 16.816C27.4558 16.816 28.0376 16.5594 28.4997 16.046C28.9788 15.5155 29.2184 14.7626 29.2184 13.7872C29.2184 12.8118 28.9788 12.0674 28.4997 11.554C28.0376 11.0406 27.4644 10.784 26.7799 10.784C26.0954 10.784 25.5221 11.0406 25.0601 11.554C24.5981 12.0674 24.367 12.8118 24.367 13.7872C24.367 14.7797 24.5895 15.5326 25.0344 16.046C25.4793 16.5594 26.0526 16.816 26.7542 16.816ZM43.0727 21.1797C41.6353 21.1797 40.3433 20.8802 39.1968 20.2813C38.0674 19.6824 37.1775 18.8267 36.5273 17.7144C35.877 16.6021 35.5519 15.293 35.5519 13.7872C35.5519 12.2984 35.877 10.9979 36.5273 9.88556C37.1947 8.77326 38.093 7.91765 39.2225 7.31872C40.369 6.71979 41.661 6.42032 43.0984 6.42032C44.5358 6.42032 45.8193 6.71979 46.9487 7.31872C48.0952 7.91765 48.9936 8.77326 49.6439 9.88556C50.3112 10.9979 50.6449 12.2984 50.6449 13.7872C50.6449 15.2759 50.3112 16.585 49.6439 17.7144C48.9936 18.8267 48.0952 19.6824 46.9487 20.2813C45.8021 20.8802 44.5102 21.1797 43.0727 21.1797ZM43.0727 16.816C43.7743 16.816 44.3562 16.5594 44.8182 16.046C45.2973 15.5155 45.5369 14.7626 45.5369 13.7872C45.5369 12.8118 45.2973 12.0674 44.8182 11.554C44.3562 11.0406 43.7829 10.784 43.0984 10.784C42.4139 10.784 41.8406 11.0406 41.3786 11.554C40.9166 12.0674 40.6856 12.8118 40.6856 13.7872C40.6856 14.7797 40.908 15.5326 41.3529 16.046C41.7979 16.5594 42.3711 16.816 43.0727 16.816ZM51.8704 13.7872C51.8704 12.2984 52.1356 10.9979 52.6661 9.88556C53.2137 8.77326 53.9581 7.91765 54.8993 7.31872C55.8404 6.71979 56.8843 6.42032 58.0308 6.42032C58.9549 6.42032 59.7763 6.61711 60.495 7.01069C61.2308 7.38717 61.8041 7.90909 62.2148 8.57647V2.00535H67.2715V21H62.2148V18.9979C61.8212 19.6652 61.265 20.1957 60.5463 20.5893C59.8276 20.9829 58.9805 21.1797 58.0051 21.1797C56.8586 21.1797 55.8148 20.8802 54.8736 20.2813C53.9495 19.6824 53.2137 18.8267 52.6661 17.7144C52.1356 16.585 51.8704 15.2759 51.8704 13.7872ZM62.2404 13.7872C62.2404 12.8631 61.9838 12.1358 61.4704 11.6053C60.9741 11.0749 60.3581 10.8096 59.6223 10.8096C58.8693 10.8096 58.2447 11.0749 57.7485 11.6053C57.2522 12.1187 57.0041 12.846 57.0041 13.7872C57.0041 14.7112 57.2522 15.4471 57.7485 15.9947C58.2447 16.5251 58.8693 16.7904 59.6223 16.7904C60.3581 16.7904 60.9741 16.5251 61.4704 15.9947C61.9838 15.4642 62.2404 14.7283 62.2404 13.7872Z" fill="white"/>
<path d="M75.1693 2.00535V21H70.1383V2.00535H75.1693ZM93.5381 6.6L84.4001 27.8535H78.9328L82.3723 20.384L76.4686 6.6H82.0643L85.0932 14.7626L88.0194 6.6H93.5381ZM102.632 10.784H100.373V21H95.3162V10.784H93.7505V6.6H95.3162V6.47166C95.3162 4.62353 95.8553 3.21176 96.9334 2.23636C98.0285 1.24385 99.5943 0.747593 101.631 0.747593C102.041 0.747593 102.358 0.756149 102.58 0.773261V5.05989C102.444 5.04278 102.255 5.03422 102.016 5.03422C101.468 5.03422 101.066 5.16257 100.809 5.41925C100.553 5.65882 100.407 6.0524 100.373 6.6H102.632V10.784ZM118.188 13.6332C118.188 14.0267 118.162 14.4203 118.111 14.8139H108.588C108.639 15.6011 108.853 16.1914 109.23 16.585C109.623 16.9615 110.12 17.1497 110.719 17.1497C111.557 17.1497 112.156 16.7733 112.515 16.0203H117.88C117.658 17.0128 117.221 17.9027 116.571 18.6898C115.938 19.4599 115.133 20.0674 114.158 20.5123C113.183 20.9572 112.105 21.1797 110.924 21.1797C109.504 21.1797 108.237 20.8802 107.125 20.2813C106.03 19.6824 105.166 18.8267 104.532 17.7144C103.916 16.6021 103.608 15.293 103.608 13.7872C103.608 12.2813 103.916 10.9807 104.532 9.88556C105.148 8.77326 106.004 7.91765 107.099 7.31872C108.212 6.71979 109.486 6.42032 110.924 6.42032C112.344 6.42032 113.602 6.71123 114.697 7.29305C115.792 7.87487 116.648 8.71337 117.264 9.80856C117.88 10.8866 118.188 12.1615 118.188 13.6332ZM113.054 12.3754C113.054 11.7594 112.849 11.2802 112.438 10.938C112.028 10.5786 111.514 10.3989 110.898 10.3989C110.282 10.3989 109.777 10.5701 109.384 10.9123C108.99 11.2374 108.733 11.7251 108.614 12.3754H113.054Z" fill="#E43071"/>
</svg>
